# xmcd
#
# Track frame offsets:
#        150
#        18779
#        46892
#        66757
#        83937
#        101424
#        124381
#        162331
#        168737
#        189629
#        210934
#        232030
#        255191
#        268474
#        284304
#
# Disc length: 4113 seconds
#
# Revision: 1
# Processed by: cddbd v1.5.2PL0 Copyright (c) Steve Scherf et al.
# Submitted via: jack 3.1.1
#
DISCID=d1100f0f
DTITLE=Various Artist - MOJO Proudly Presents Physical Graffiti Redrawn
DYEAR=2015
DGENRE=Hard Rock
TTITLE0=White Denim - Custard Pie
TTITLE1=Blackberry Smoke - The Rover
TTITLE2=Miraculous Mule - In My Time Of Dying
TTITLE3=The Temperance Movement - Houses Of The Holy
TTITLE4=Son Little - Trampled Underfoot
TTITLE5=Songhoy Blues - Kashmir
TTITLE6=Syd Arthur - In The Light
TTITLE7=Laura Marling - Bron-Yr-Aur
TTITLE8=Max Jury - Down By The Seaside
TTITLE9=Michael Kiwanuka - Ten Years Gone
TTITLE10=Duke Garwood - Night Flight
TTITLE11=Rose Windows - The Wanton Song
TTITLE12=Kitty, Daisy and Lewis - Boogie With Stu
TTITLE13=Hiss Golden Messenger - Black Country Woman
TTITLE14=Sun Kill Moon - Sick Again
EXTD=
EXTT0=
EXTT1=
EXTT2=
EXTT3=
EXTT4=
EXTT5=
EXTT6=
EXTT7=
EXTT8=
EXTT9=
EXTT10=
EXTT11=
EXTT12=
EXTT13=
EXTT14=
PLAYORDER=
